<svg xmlns="http://www.w3.org/2000/svg" viewBox="0 0 88.71 50.61">
    <path fill="#797979" d="M87.74,50.61H1a1,1,0,0,1-1-1V1A1,1,0,0,1,1,0H87.74a1,1,0,0,1,1,1V49.64A1,1,0,0,1,87.74,50.61ZM2,48.67H86.76V2H2Z"/>
    <rect fill="#797979" x="0.97" y="10.61" width="86.76" height="1.95"/>
    <rect fill="#797979" x="49.19" y="11.59" width="1.95" height="38.05"/>
    <rect fill="#797979" x="6.4" y="5.16" width="25.31" height="1.95"/>
    <rect fill="#797979" x="35.7" y="5.16" width="23.11" height="1.95"/>
    <rect fill="#797979" x="8.58" y="18.61" width="12.01" height="1.95"/>
    <rect fill="#797979" x="8.58" y="26.72" width="33.58" height="1.95"/>
    <rect fill="#797979" x="8.58" y="33.89" width="33.58" height="1.95"/>
    <rect fill="#797979" x="8.58" y="41.06" width="33.58" height="1.95"/>
    <path fill="#ed9300" d="M62.84,45a.9.9,0,0,1-.28,0,1,1,0,0,1-.67-.74l-1.23-6.14-6.14-1.22A1,1,0,0,1,54,35.24l2.56-2.56a1,1,0,0,1,.84-.27l3.43.54,3.88-3.89L56,20.29a1,1,0,0,1,0-1.38l2.19-2.18a1,1,0,0,1,1.16-.16L70.78,23,76.5,17.3a3.52,3.52,0,0,1,5,5L75.75,28l6.46,11.46a1,1,0,0,1-.16,1.16L79.86,42.8a1,1,0,0,1-1.37,0L69.72,34l-3.89,3.89.54,3.42a1,1,0,0,1-.28.84l-2.56,2.57A1,1,0,0,1,62.84,45Zm-6.15-9.69,5,1a1,1,0,0,1,.76.77l1,5,.93-.93-.55-3.46a1,1,0,0,1,.39-.93,1.37,1.37,0,0,0,.18-.16L69,32a1,1,0,0,1,1.38,0l8.76,8.77,1-1L73.69,28.31a1,1,0,0,1,.16-1.17l6.24-6.24a1.55,1.55,0,0,0,0-2.22,1.61,1.61,0,0,0-2.22,0l-6.24,6.24a1,1,0,0,1-1.16.16L59,18.62l-1,1,8.77,8.77a1,1,0,0,1,0,1.37l-4.64,4.64a.9.9,0,0,0-.15.19,1,1,0,0,1-.94.38l-3.46-.54Z"/>
</svg>
