<svg xmlns="http://www.w3.org/2000/svg" viewBox="0 0 67.19 69.87">
    <path fill="#ed9300" d="M55.43,36.85h0a1,1,0,0,1-.83-.47c-.45-.76-10.92-18.48-10.92-24.63a11.76,11.76,0,0,1,23.51,0c0,6.15-10.47,23.87-10.92,24.63A1,1,0,0,1,55.43,36.85Zm0-34.9a9.82,9.82,0,0,0-9.81,9.8c0,4.28,6.45,16.37,9.81,22.2,3.36-5.83,9.81-17.92,9.81-22.2A9.82,9.82,0,0,0,55.43,2Zm0,15.69a5.89,5.89,0,1,1,5.89-5.89A5.89,5.89,0,0,1,55.43,17.64Zm0-9.83a3.95,3.95,0,1,0,3.94,3.94A3.95,3.95,0,0,0,55.43,7.81Z"/>
    <polygon fill="#797979" points="54.54 38.18 53.52 37.37 54.54 38.17 54.54 38.18"/>
    <path fill="#797979" d="M56,69.75h-.56v-1.3H56a7.44,7.44,0,0,0,1.25-.1l.11.64-.08-.64.19,1.28h0A9,9,0,0,1,56,69.75Zm-3.12,0H51v-1.3h1.92Zm-4.48,0H46.48v-1.3H48.4Zm-4.49,0H42v-1.3h1.92Zm-4.49,0H37.5v-1.3h1.92Zm-4.49,0H33v-1.3h1.92Zm-4.49,0H28.52v-1.3h1.92Zm-4.49,0H24v-1.3H26Zm-4.49,0H19.54v-1.3h1.93Zm38.62-1-.6-1.15a7,7,0,0,0,1.46-1h0l.06-.06.36.54.51.41-.49-.4v0l.39.45A8.31,8.31,0,0,1,60.09,68.75Zm3.49-3.26-1.11-.67a7.56,7.56,0,0,0,.74-1.61l1.24.37L64,63.44l.48.16h0A8.94,8.94,0,0,1,63.58,65.49Zm.22-2.09.63.2Zm-.23-2.52a7.35,7.35,0,0,0-.21-1.75L64,59h0l.64-.19v0h0a9.51,9.51,0,0,1,.25,2.06ZM62.46,57a7.68,7.68,0,0,0-1.09-1.39h0l-.06-.05.51-.41.36-.53-.35.52,0,0,.42-.41a8.76,8.76,0,0,1,1.28,1.63Zm-3-2.78a7.46,7.46,0,0,0-1.65-.62h-.06l.21-.62.08-.64-.07.61v0l.14-.56a9.09,9.09,0,0,1,1.94.73Zm-4-.84-1.92,0V52h0v0h1.92Zm-4.49,0-1.92,0v-.65l0,.65L49,52l1.92,0Zm-4.48,0H44.52V52h0v0h1.93Zm-4.49,0-1.93,0v-1.3h0v0l1.93,0Zm-4.66-.41a7.56,7.56,0,0,1-1.87-1l.38-.53,0,0,.38-.56,0,0h0a6.34,6.34,0,0,0,1.53.79Zm-3.78-3a7.2,7.2,0,0,1-.84-1.93l1.24-.37-.47.16.48-.14-.62.18.62-.17a5.9,5.9,0,0,0,.69,1.59Zm.25-4.56-1.29-.16a7.56,7.56,0,0,1,.56-2l.6.27,0,0,.63.22,0,.06h0A5.7,5.7,0,0,0,33.77,45.24Zm1.78-3.54-.9-.94a7.31,7.31,0,0,1,1.71-1.22l.31.59-.3-.59L37,40.69A6.15,6.15,0,0,0,35.55,41.7Zm3.61-1.63-.1-1.3.6,0H41V40H39.66A4.19,4.19,0,0,0,39.16,40.07ZM50,40H48.09V38.75H50Zm-4.49,0H43.6V38.75h1.92Zm7.25-.54-.56-1.17a4.17,4.17,0,0,0,1.33-1l1,.86A5.26,5.26,0,0,1,52.78,39.5Z"/>
    <path fill="#ed9300" d="M16.26,69.87a1,1,0,0,1-.84-.48C14.8,68.33,0,43.3,0,34.69a16.26,16.26,0,0,1,32.52,0c0,8.61-14.79,33.64-15.42,34.7A1,1,0,0,1,16.26,69.87Zm0-49.5A14.33,14.33,0,0,0,2,34.69c0,7,11.13,26.76,14.31,32.27,3.18-5.51,14.31-25.31,14.31-32.27A14.33,14.33,0,0,0,16.26,20.37Zm0,22.26a7.94,7.94,0,1,1,7.94-7.94A7.95,7.95,0,0,1,16.26,42.63Zm0-13.94a6,6,0,1,0,6,6A6,6,0,0,0,16.26,28.69Z"/>
</svg>
