<svg xmlns="http://www.w3.org/2000/svg" viewBox="0 0 65.86 67.95">
    <rect fill="#797979" x="31.96" y="60.81" width="1.95" height="6.16"/>
    <rect fill="#797979" x="31.96" y="13.78" width="1.95" height="5.27"/>
    <rect fill="#797979" y="66" width="65.86" height="1.95"/>
    <path fill="#797979" d="M57.17,61.78H8.81A1.05,1.05,0,0,1,8,61.36a1,1,0,0,1-.13-.91c2.05-5.12,2.38-10.14,2.65-14.18,0-.8.1-1.55.16-2.24A33,33,0,0,1,17.5,26.14c4.11-5.06,9.58-7.85,15.42-7.87H33c5.84,0,11.32,2.81,15.43,7.87A33,33,0,0,1,55.27,44c.06.69.11,1.44.16,2.24.27,4,.6,9.06,2.65,14.18a1,1,0,0,1-.1.91A1,1,0,0,1,57.17,61.78Zm-47-1.94H55.77A48.87,48.87,0,0,1,53.49,46.4c-.05-.78-.1-1.52-.16-2.21-1-11.59-8.46-23.94-20.34-24h-.11c-11.84,0-19.3,12.39-20.29,24-.06.69-.11,1.42-.16,2.2A48.88,48.88,0,0,1,10.15,59.84Z"/>
    <path fill="#797979" d="M29.85,25.84,29.31,24a13,13,0,0,1,3.63-.51V25.4A11.49,11.49,0,0,0,29.85,25.84Z"/>
    <path fill="#797979" d="M17.56,47.43l-1.94-.13.06-.87c0-.69.09-1.35.14-2,.68-7.94,4.48-15.29,9.69-18.73l1.07,1.62c-4.73,3.12-8.19,9.9-8.82,17.27-.05.6-.1,1.25-.14,1.93Z"/>
    <rect fill="#ed9300" x="32.13" width="1.95" height="10.29"/>
    <rect fill="#ed9300" x="37.89" y="8.79" width="10.18" height="1.95" transform="translate(5.68 33.25) rotate(-44.99)"/>
    <rect fill="#ed9300" x="22.18" y="4.5" width="1.95" height="10.39" transform="translate(-0.07 19.21) rotate(-45)"/>
</svg>
